<?xml version="1.0" encoding="UTF-8" standalone="no"?>
<!-- Created with Inkscape (http://www.inkscape.org/) -->

<svg
   xmlns:dc="http://purl.org/dc/elements/1.1/"
   xmlns:cc="http://creativecommons.org/ns#"
   xmlns:rdf="http://www.w3.org/1999/02/22-rdf-syntax-ns#"
   xmlns:svg="http://www.w3.org/2000/svg"
   xmlns="http://www.w3.org/2000/svg"
   xmlns:sodipodi="http://sodipodi.sourceforge.net/DTD/sodipodi-0.dtd"
   xmlns:inkscape="http://www.inkscape.org/namespaces/inkscape"
   width="13.201113mm"
   height="12.508347mm"
   viewBox="0 0 13.201113 12.508347"
   version="1.1"
   id="svg1457"
   inkscape:version="0.92.3 (2405546, 2018-03-11)"
   sodipodi:docname="edit.svg">
  <defs
     id="defs1451" />
  <sodipodi:namedview
     id="base"
     pagecolor="#ffffff"
     bordercolor="#666666"
     borderopacity="1.0"
     inkscape:pageopacity="0.0"
     inkscape:pageshadow="2"
     inkscape:zoom="1.979899"
     inkscape:cx="30.97336"
     inkscape:cy="13.825036"
     inkscape:document-units="mm"
     inkscape:current-layer="layer1"
     showgrid="false"
     inkscape:window-width="1871"
     inkscape:window-height="1030"
     inkscape:window-x="0"
     inkscape:window-y="25"
     inkscape:window-maximized="1" />
  <metadata
     id="metadata1454">
    <rdf:RDF>
      <cc:Work
         rdf:about="">
        <dc:format>image/svg+xml</dc:format>
        <dc:type
           rdf:resource="http://purl.org/dc/dcmitype/StillImage" />
        <dc:title></dc:title>
      </cc:Work>
    </rdf:RDF>
  </metadata>
  <g
     inkscape:label="Layer 1"
     inkscape:groupmode="layer"
     id="layer1"
     transform="translate(-96.535477,-70.610488)">
    <path
       style="color:#000000;font-style:normal;font-variant:normal;font-weight:normal;font-stretch:normal;font-size:medium;line-height:normal;font-family:sans-serif;font-variant-ligatures:normal;font-variant-position:normal;font-variant-caps:normal;font-variant-numeric:normal;font-variant-alternates:normal;font-feature-settings:normal;text-indent:0;text-align:start;text-decoration:none;text-decoration-line:none;text-decoration-style:solid;text-decoration-color:#000000;letter-spacing:normal;word-spacing:normal;text-transform:none;writing-mode:lr-tb;direction:ltr;text-orientation:mixed;dominant-baseline:auto;baseline-shift:baseline;text-anchor:start;white-space:normal;shape-padding:0;clip-rule:nonzero;display:inline;overflow:visible;visibility:visible;opacity:1;isolation:auto;mix-blend-mode:normal;color-interpolation:sRGB;color-interpolation-filters:linearRGB;solid-color:#000000;solid-opacity:1;vector-effect:none;fill:#333000;fill-opacity:1;fill-rule:nonzero;stroke:none;stroke-width:2.5;stroke-linecap:round;stroke-linejoin:round;stroke-miterlimit:4;stroke-dasharray:none;stroke-dashoffset:0;stroke-opacity:1;paint-order:stroke markers fill;color-rendering:auto;image-rendering:auto;shape-rendering:auto;text-rendering:auto;enable-background:accumulate"
       d="M 14.171875 0.00390625 A 1.250125 1.250125 0 0 0 14.296875 2.4980469 L 47.390625 2.4980469 L 47.390625 44.773438 L 14.296875 44.773438 A 1.251953 1.251953 0 0 0 14.296875 47.277344 L 48.644531 47.277344 A 1.250125 1.250125 0 0 0 49.892578 46.021484 L 49.892578 1.25 A 1.250125 1.250125 0 0 0 48.644531 0.00390625 L 14.296875 0.00390625 A 1.250125 1.250125 0 0 0 14.171875 0.00390625 z M 44.326172 3.6503906 A 1.250125 1.250125 0 0 0 43.09375 4.9121094 L 43.09375 34.085938 C 42.745115 33.25222 42.324532 32.36131 41.816406 31.464844 C 39.862731 28.018047 36.454304 24.33443 31.224609 24.384766 C 26.358279 24.431556 23.252965 28.15031 21.472656 31.568359 C 19.692348 34.986405 19.050781 38.351562 19.050781 38.351562 L 18.949219 38.882812 L 18.476562 38.882812 A 1.2519535 1.2519535 0 0 0 18.476562 41.386719 L 44.341797 41.386719 A 1.250125 1.250125 0 0 0 45.597656 40.138672 L 45.597656 4.9121094 A 1.250125 1.250125 0 0 0 44.326172 3.6503906 z M 36.201172 5.6894531 C 35.095022 5.6548178 33.958729 5.9309886 32.943359 6.5429688 C 31.308283 7.5284626 30.30715 9.1949404 30.119141 10.945312 C 29.957083 8.7906266 28.630806 6.8254087 26.513672 6.0566406 C 23.593609 4.9962677 20.352529 6.6358817 19.273438 9.6074219 A 1.2528281 1.2528281 0 0 0 21.626953 10.462891 C 22.267167 8.6999069 24.072616 7.8285123 25.658203 8.4042969 C 27.243791 8.9800814 28.069863 10.803431 27.429688 12.566406 C 26.789473 14.329378 24.984024 15.202734 23.398438 14.626953 A 1.250125 1.250125 0 1 0 22.542969 16.974609 C 25.463032 18.034986 28.706063 16.395349 29.785156 13.423828 C 29.957008 12.950562 30.058699 12.467386 30.107422 11.986328 C 30.172907 12.793719 30.411447 13.59533 30.855469 14.332031 C 32.459122 16.992732 36.009143 17.749137 38.716797 16.117188 C 41.424413 14.485252 42.410294 10.99079 40.806641 8.3300781 C 40.004814 6.999726 38.719476 6.1465615 37.292969 5.828125 C 36.936351 5.7485187 36.569888 5.7009982 36.201172 5.6894531 z M 36.117188 8.1757812 C 36.325752 8.1809649 36.531004 8.2043461 36.730469 8.2480469 C 37.528289 8.42285 38.230652 8.8987126 38.666016 9.6210938 C 39.536819 11.06586 39.032156 13.008358 37.425781 13.976562 C 35.819369 14.944775 33.866897 14.483821 32.996094 13.039062 C 32.125328 11.594294 32.629916 9.651799 34.236328 8.6835938 C 34.838719 8.3205153 35.491491 8.1602305 36.117188 8.1757812 z M 35.90625 9.6113281 A 1.7793015 1.85901 44.505168 0 0 34.857422 9.8925781 A 1.7793015 1.85901 44.505168 0 0 34.183594 12.404297 A 1.7793015 1.85901 44.505168 0 0 36.666016 12.966797 A 1.7793015 1.85901 44.505168 0 0 37.339844 10.455078 A 1.7793015 1.85901 44.505168 0 0 35.90625 9.6113281 z M 24.582031 9.7558594 A 1.7793015 1.85901 44.505168 0 0 23.533203 10.037109 A 1.7793015 1.85901 44.505168 0 0 22.861328 12.548828 A 1.7793015 1.85901 44.505168 0 0 25.34375 13.113281 A 1.7793015 1.85901 44.505168 0 0 26.015625 10.601562 A 1.7793015 1.85901 44.505168 0 0 24.582031 9.7558594 z M 20.898438 12.375 L 14.408203 12.705078 A 1.250125 1.250125 0 0 0 13.783203 12.890625 L 13.736328 12.835938 L 0 24.314453 L 5.4394531 30.666016 L 6.4003906 29.863281 L 18.693359 19.587891 A 1.250125 1.250125 0 0 0 19.490234 18.660156 L 20.898438 12.375 z M 17.740234 15.039062 L 17.300781 16.998047 L 15.710938 15.142578 L 17.740234 15.039062 z M 13.443359 16.337891 L 15.630859 18.890625 L 8.9960938 24.435547 L 6.8085938 21.882812 L 13.443359 16.337891 z M 36.035156 18.201172 C 35.105695 19.075543 33.807587 19.406921 31.615234 19.558594 C 29.381004 19.672974 27.166444 18.960286 26.300781 18.441406 C 26.273569 19.393356 26.327872 19.034197 26.320312 19.986328 C 26.350927 20.479027 26.247702 20.975078 26.423828 21.462891 C 26.835488 22.459938 28.955368 23.231817 31.205078 23.205078 C 31.371145 23.205413 31.537852 23.201265 31.703125 23.193359 C 33.98664 23.103769 35.934625 22.194431 36.058594 21.162109 C 36.135696 20.054027 36.035156 18.201172 36.035156 18.201172 z M 4.890625 23.486328 L 7.078125 26.039062 L 5.7324219 27.164062 L 3.5449219 24.611328 L 4.890625 23.486328 z M 31.253906 26.888672 C 35.310965 26.849629 37.910319 29.644609 39.640625 32.697266 C 40.947245 35.002456 41.179674 36.336738 41.441406 37.339844 L 22.041016 37.339844 C 22.28026 36.347642 22.498563 35.016378 23.695312 32.71875 C 25.278027 29.680044 27.651828 26.923296 31.253906 26.888672 z "
       id="rect5398-85"
       transform="matrix(0.26458333,0,0,0.26458333,96.535477,70.610488)" />
    <g
       id="g3972"
       transform="matrix(0.26458333,0,0,0.26458333,-97.126035,6.8835387)" />
  </g>
</svg>
