<?xml version="1.0" encoding="UTF-8" standalone="no"?>
<!-- Created with Inkscape (http://www.inkscape.org/) -->

<svg
   xmlns:dc="http://purl.org/dc/elements/1.1/"
   xmlns:cc="http://creativecommons.org/ns#"
   xmlns:rdf="http://www.w3.org/1999/02/22-rdf-syntax-ns#"
   xmlns:svg="http://www.w3.org/2000/svg"
   xmlns="http://www.w3.org/2000/svg"
   xmlns:sodipodi="http://sodipodi.sourceforge.net/DTD/sodipodi-0.dtd"
   xmlns:inkscape="http://www.inkscape.org/namespaces/inkscape"
   width="26.848637mm"
   height="12.425378mm"
   viewBox="0 0 26.848636 12.425377"
   version="1.1"
   id="svg6051"
   inkscape:version="0.92.3 (2405546, 2018-03-11)"
   sodipodi:docname="share.svg">
  <defs
     id="defs6045" />
  <sodipodi:namedview
     id="base"
     pagecolor="#ffffff"
     bordercolor="#666666"
     borderopacity="1.0"
     inkscape:pageopacity="0.0"
     inkscape:pageshadow="2"
     inkscape:zoom="4"
     inkscape:cx="8.4828397"
     inkscape:cy="26.434169"
     inkscape:document-units="mm"
     inkscape:current-layer="layer1"
     showgrid="false"
     inkscape:window-width="1871"
     inkscape:window-height="1030"
     inkscape:window-x="0"
     inkscape:window-y="25"
     inkscape:window-maximized="1"
     showguides="true"
     inkscape:guide-bbox="true">
    <sodipodi:guide
       position="58.001629,9.7763837"
       orientation="0,1"
       id="guide2965"
       inkscape:locked="false" />
  </sodipodi:namedview>
  <metadata
     id="metadata6048">
    <rdf:RDF>
      <cc:Work
         rdf:about="">
        <dc:format>image/svg+xml</dc:format>
        <dc:type
           rdf:resource="http://purl.org/dc/dcmitype/StillImage" />
        <dc:title></dc:title>
      </cc:Work>
    </rdf:RDF>
  </metadata>
  <g
     inkscape:label="Layer 1"
     inkscape:groupmode="layer"
     id="layer1"
     transform="translate(-26.438114,-49.069851)">
    <g
       id="g6943" />
    <g
       id="g5755"
       transform="matrix(0.19519061,0,0,0.19519061,-47.184696,33.471906)" />
    <g
       id="g5993"
       transform="matrix(0.26458333,0,0,0.21640857,-109.46626,31.788991)"
       inkscape:export-xdpi="294.55969"
       inkscape:export-ydpi="294.55969" />
    <g
       id="g4997"
       transform="matrix(0.26457714,-0.00180989,0.00180989,0.26457714,-92.678435,44.727158)"
       inkscape:export-xdpi="294.55969"
       inkscape:export-ydpi="294.55969" />
    <g
       id="g5906"
       transform="matrix(0.27604855,0,0,0.26587937,-117.58029,24.031081)"
       inkscape:export-xdpi="294.55969"
       inkscape:export-ydpi="294.55969">
      <g
         id="g5884" />
      <g
         id="g5880" />
    </g>
    <g
       id="g5913"
       transform="matrix(0.21160861,0,0,0.21160861,-71.20787,29.114988)"
       inkscape:export-xdpi="285.97568"
       inkscape:export-ydpi="285.97568" />
    <g
       id="g5909"
       transform="matrix(0.0075838,-0.21147267,0.21147267,0.0075838,56.580229,219.35584)"
       inkscape:export-xdpi="285.97568"
       inkscape:export-ydpi="285.97568" />
    <g
       style="stroke-width:0.66275173;stroke-miterlimit:4;stroke-dasharray:none"
       id="g6000"
       transform="matrix(-0.18876808,-0.22035243,0.22260703,-0.18603578,243.58717,231.62632)"
       inkscape:export-xdpi="285.97568"
       inkscape:export-ydpi="285.97568" />
    <g
       transform="translate(-2.1464538,-14.45789)"
       id="g3472"
       style="stroke-width:0.66145831;stroke-miterlimit:4;stroke-dasharray:none">
      <path
         id="path3460"
         transform="matrix(0.26458333,0,0,0.26458333,28.584568,63.527741)"
         style="color:#000000;font-style:normal;font-variant:normal;font-weight:normal;font-stretch:normal;font-size:medium;line-height:normal;font-family:sans-serif;font-variant-ligatures:normal;font-variant-position:normal;font-variant-caps:normal;font-variant-numeric:normal;font-variant-alternates:normal;font-feature-settings:normal;text-indent:0;text-align:start;text-decoration:none;text-decoration-line:none;text-decoration-style:solid;text-decoration-color:#000000;letter-spacing:normal;word-spacing:normal;text-transform:none;writing-mode:lr-tb;direction:ltr;text-orientation:mixed;dominant-baseline:auto;baseline-shift:baseline;text-anchor:start;white-space:normal;shape-padding:0;clip-rule:nonzero;display:inline;overflow:visible;visibility:visible;opacity:1;isolation:auto;mix-blend-mode:normal;color-interpolation:sRGB;color-interpolation-filters:linearRGB;solid-color:#000000;solid-opacity:1;vector-effect:none;fill:#000000;fill-opacity:1;fill-rule:nonzero;stroke:none;stroke-width:2.5;stroke-linecap:butt;stroke-linejoin:miter;stroke-miterlimit:4;stroke-dasharray:none;stroke-dashoffset:0;stroke-opacity:1;color-rendering:auto;image-rendering:auto;shape-rendering:auto;text-rendering:auto;enable-background:accumulate"
         d="M 0.8828125,8.2070312 V 10.708984 H 33.230469 V 8.2070312 Z m 8.7480469,8.9316408 v 2.496094 H 30.314453 v -2.496094 z m -9.63281253,9.988281 v 2.494141 H 34.736328 V 27.126953 Z M 14.673828,35.166016 v 2.501953 H 37.564453 V 35.166016 Z M 41.42578,0.00195313 A 1.250125,1.250125 0 0 0 40.177733,1.1679688 c 0,0 -0.699806,10.2067192 -0.960937,20.7207032 -0.130583,5.256994 -0.151657,10.58321 0.08203,14.792969 0.116825,2.104875 0.298819,3.9249 0.576172,5.359375 0.138671,0.717237 0.296719,1.339849 0.515625,1.882812 0.21891,0.542967 0.470323,1.051126 1.056641,1.439453 0.965899,0.639731 2.027109,0.737231 3.675781,0.945313 1.648671,0.208063 3.750057,0.365431 6.185547,0.472656 4.870975,0.214413 11.042703,0.236966 17.251953,0.08008 6.20925,-0.156888 12.455473,-0.492949 17.472656,-1.009766 2.50859,-0.258406 4.706384,-0.560944 6.466797,-0.916015 1.760413,-0.355049 3.028713,-0.663822 3.994141,-1.365235 1.034177,-0.751358 1.51529,-1.91481 1.992187,-3.380859 0.476893,-1.466048 0.863923,-3.275073 1.189453,-5.330078 0.651061,-4.110017 1.062641,-9.200469 1.328131,-14.173828 0.53096,-9.946726 0.47265,-19.4433595 0.47265,-19.4433595 A 1.250125,1.250125 0 0 0 100.2207,0.00195313 Z m 1.195313,2.49414067 h 56.324218 c 0.0045,1.1011351 0.05657,8.8377642 -0.435546,18.0566402 -0.122262,2.290485 -0.282073,4.596613 -0.476563,6.814454 a 1.250125,1.250125 0 0 0 -0.232422,0.109374 c 0,0 -5.885104,3.316068 -12.34375,6.652344 -3.229323,1.66814 -6.605184,3.341833 -9.433593,4.597656 -2.828406,1.255828 -5.309427,2.050072 -5.919922,2.074219 -0.678883,0.02683 -3.26747,-0.694492 -6.214844,-1.947265 -2.947378,-1.25277 -6.442914,-2.966472 -9.78125,-4.681641 -6.456826,-3.317381 -12.093059,-6.527632 -12.472656,-6.744141 0.01294,-1.804307 0.04017,-3.638182 0.08594,-5.480468 0.2448,-9.856184 0.829937,-18.4013102 0.900391,-19.4511722 z M 41.630858,30.289062 c 1.724507,0.975837 5.885646,3.315042 11.332032,6.113282 3.36932,1.731088 6.907008,3.45218 9.951171,4.746094 3.044168,1.293913 5.401909,2.230744 7.285157,2.15625 1.715788,-0.06788 3.937063,-1.006295 6.84375,-2.296876 2.906687,-1.29058 6.304265,-2.977144 9.558593,-4.658203 5.393331,-2.785978 9.580511,-5.114252 11.13086,-5.980468 -0.159002,1.442241 -0.32951,2.8384 -0.529297,4.099609 -0.313247,1.977373 -0.684004,3.685679 -1.09375,4.945312 -0.40975,1.259634 -0.943231,2.03055 -1.083984,2.132813 -0.2095,0.152202 -1.387157,0.608254 -3.019532,0.9375 -1.632374,0.329235 -3.771969,0.625659 -6.230468,0.878906 -4.916992,0.506495 -11.112695,0.840442 -17.273438,0.996094 -6.160743,0.155641 -12.295702,0.130593 -17.082031,-0.08008 -2.393167,-0.105336 -4.449863,-0.257244 -5.986328,-0.451172 -1.485252,-0.187464 -2.547396,-0.550792 -2.558594,-0.535156 -0.02832,-0.04172 -0.09794,-0.137996 -0.166016,-0.306641 -0.124346,-0.308447 -0.263145,-0.799143 -0.382812,-1.417969 -0.23932,-1.237644 -0.419867,-2.977811 -0.533203,-5.019531 -0.103686,-1.867979 -0.149258,-4.007433 -0.16211,-6.259766 z M 82.062499,3.75 c -0.715084,-0.017888 -1.44184,0.013419 -2.164062,0.097656 -2.88889,0.3369449 -5.826679,1.5880083 -7.285157,4.296875 -0.872088,1.6197506 -1.396158,3.5526998 -1.490234,5.4687498 -0.09407,1.916051 0.229352,3.843065 1.320312,5.345703 3.42751,4.720914 8.888672,3.830078 8.888672,3.830078 l -0.443359,-2.457031 c 0,0 -3.800308,0.769043 -6.421875,-2.841797 -0.607106,-0.836194 -0.924667,-2.221313 -0.849609,-3.75 0.07506,-1.528686 0.533441,-3.172192 1.203124,-4.4160152 0.936639,-1.739641 2.990776,-2.7189221 5.367188,-2.9960938 2.376408,-0.2771906 4.971504,0.2322877 6.371094,1.0488281 1.426307,0.8321197 2.077098,1.7001983 2.464844,2.6425779 0.387741,0.94238 0.480084,2.018303 0.509765,3.1875 0.02835,1.123174 -0.133738,2.404319 -0.40625,3.492188 -0.209046,0.834542 -0.482262,1.330423 -0.708984,1.75 -0.296996,-0.140939 -0.643957,-0.321417 -1.033203,-0.576172 -0.358823,-0.234822 -0.670804,-0.467918 -0.972657,-0.691406 1.282952,-1.787179 1.511674,-4.197762 0.330079,-6.158203 C 85.940352,9.6930849 84.647202,8.8379678 83.220702,8.5195312 82.864077,8.4399251 82.498886,8.3943576 82.130858,8.3828125 c -1.104081,-0.034635 -2.234641,0.2415355 -3.25,0.8535156 -2.707627,1.6319359 -3.693508,5.1205349 -2.089843,7.7812499 1.575334,2.613682 5.026671,3.391176 7.714843,1.871094 0.390843,0.29914 0.914695,0.687345 1.50586,1.074219 0.554713,0.363023 1.132315,0.714947 1.734375,0.951171 0.301039,0.118111 0.605264,0.213436 1.003906,0.228516 0.398638,0.01512 1.02475,-0.121074 1.410156,-0.603516 0.66669,-0.834561 1.064098,-1.938677 1.388672,-3.234374 0.324586,-1.295702 0.522033,-2.757603 0.486328,-4.164063 C 92.003407,11.895002 91.917149,10.483771 91.333983,9.0664062 90.750806,7.6490418 89.642845,6.2839787 87.820311,5.2207031 86.256426,4.3083242 84.207751,3.803663 82.062499,3.75 Z m -0.01563,7.111328 c 0.207871,0.0045 0.41382,0.02856 0.613281,0.07227 0.797843,0.174803 1.506013,0.658482 1.941406,1.380859 0.870789,1.44477 0.36616,3.387267 -1.240234,4.355469 -0.221867,0.133725 -0.45035,0.23408 -0.68164,0.314453 a 2.207222,2.3690039 19.126396 0 0 0.03906,-2.40625 2.207222,2.3690039 19.126396 0 0 -3.037109,-0.728516 2.207222,2.3690039 19.126396 0 0 -1,1.34375 c -0.480097,-1.358106 0.07616,-2.964116 1.490234,-3.816406 0.602399,-0.363075 1.251388,-0.529099 1.875,-0.515625 z M 59.246093,3.5429688 c -0.732855,0.00109 -1.477189,0.053287 -2.216797,0.15625 -2.958437,0.4118512 -5.94613,1.718334 -7.410156,4.4375 -0.872085,1.6197466 -1.398112,3.5546492 -1.492188,5.4707032 -0.09407,1.916054 0.231309,3.841108 1.322266,5.34375 3.467278,4.775686 9.255859,3.535156 9.255859,3.535156 l -0.552734,-2.435547 c 0,0 -4.099838,0.987711 -6.681641,-2.568359 -0.607109,-0.836198 -0.92271,-2.22131 -0.847656,-3.75 0.07506,-1.528691 0.525629,-3.170243 1.195312,-4.4140626 0.931095,-1.7293455 3.09548,-2.8016374 5.558594,-3.1445313 2.463111,-0.3428787 5.132221,0.1183699 6.496094,0.9140625 1.426307,0.8321159 2.077102,1.6943389 2.464844,2.6367188 0.387745,0.9423796 0.480085,2.0183036 0.509765,3.1874996 0.02835,1.123174 -0.133738,2.404315 -0.40625,3.492188 -0.209801,0.83757 -0.480048,1.339037 -0.707031,1.757812 -0.296995,-0.140938 -0.64591,-0.321417 -1.035156,-0.576171 -0.36,-0.235593 -0.672105,-0.469325 -0.97461,-0.69336 1.28658,-1.787748 1.516834,-4.201528 0.333985,-6.164062 C 63.256758,9.3981627 61.969467,8.5430421 60.542968,8.2246094 60.186343,8.1450031 59.821843,8.0994357 59.453124,8.0878906 58.346967,8.0532553 57.21067,8.3294263 56.195311,8.9414062 53.487683,10.573338 52.503756,14.0678 54.107421,16.728516 c 1.57459,2.612444 5.023317,3.384573 7.710937,1.867187 0.389496,0.299975 0.909799,0.686767 1.507813,1.078125 0.554714,0.363024 1.134268,0.709088 1.736328,0.945313 0.301039,0.11811 0.605268,0.221247 1.003906,0.236328 0.398638,0.01512 1.02279,-0.130826 1.408203,-0.613281 0.66669,-0.834562 1.064098,-1.928912 1.388672,-3.22461 0.324586,-1.295701 0.522034,-2.757602 0.486328,-4.164062 C 69.31786,11.607897 69.239441,10.196661 68.656249,8.7792969 68.073072,7.3619325 66.957298,5.9890531 65.134765,4.9257812 63.544089,3.9977751 61.444656,3.5396924 59.246093,3.5429688 Z m 0.117187,7.0292972 c 0.207871,0.0052 0.411867,0.03052 0.611328,0.07422 0.797844,0.174804 1.506016,0.65067 1.941407,1.373047 0.870788,1.44477 0.368108,3.387264 -1.238282,4.355469 -0.220767,0.133061 -0.44957,0.234221 -0.679687,0.314453 a 2.2072218,2.3690038 19.126435 0 0 0.03711,-2.404297 2.2072218,2.3690038 19.126435 0 0 -3.037109,-0.728515 2.2072218,2.3690038 19.126435 0 0 -1.001953,1.34375 c -0.481111,-1.358448 0.07755,-2.965736 1.492187,-3.81836 0.602399,-0.363075 1.251388,-0.525315 1.875,-0.509765 z m 18.703125,14.097656 c -1.47205,1.371473 -3.518952,1.881053 -6.976562,2.103516 -3.523389,0.163332 -7.010222,-0.976123 -8.371094,-1.800782 -0.04895,1.50065 0.03881,0.934478 0.01953,2.435547 0.04441,0.777018 -0.121558,1.561612 0.152344,2.332031 0.641539,1.575269 3.975935,2.80648 7.523437,2.78125 0.262203,0.0011 0.524262,-0.0043 0.785157,-0.01563 3.600941,-0.12387 6.679625,-1.541358 6.882812,-3.167968 0.128882,-1.746418 -0.01563,-4.667969 -0.01563,-4.667969 z" />
    </g>
  </g>
</svg>
